<?xml version="1.0" standalone="no"?>
<!DOCTYPE svg PUBLIC "-//W3C//DTD SVG 20010904//EN"
 "http://www.w3.org/TR/2001/REC-SVG-20010904/DTD/svg10.dtd">
<svg version="1.0" xmlns="http://www.w3.org/2000/svg"
 width="512.000000pt" height="512.000000pt" viewBox="0 0 512.000000 512.000000"
 preserveAspectRatio="xMidYMid meet">
<metadata>
Created by potrace 1.11, written by Peter Selinger 2001-2013
</metadata>
<g transform="translate(0.000000,512.000000) scale(0.100000,-0.100000)"
fill="#000000" stroke="none">
<path d="M3158 5115 c-2 -2 -57 -6 -123 -9 -66 -4 -131 -8 -145 -10 -14 -3
-52 -7 -85 -10 -33 -3 -71 -8 -85 -11 -55 -11 -86 -17 -115 -20 -16 -2 -43 -7
-60 -10 -16 -3 -39 -8 -50 -10 -16 -3 -82 -19 -160 -39 -24 -6 -121 -39 -130
-45 -5 -3 -14 -6 -20 -6 -16 -1 -147 -67 -185 -94 -52 -37 -97 -85 -119 -129
-15 -30 -19 -53 -16 -108 2 -38 7 -82 10 -99 4 -16 8 -34 9 -40 1 -5 5 -16 9
-22 5 -7 6 -13 2 -13 -3 0 1 -16 9 -35 11 -26 12 -35 3 -36 -7 0 -21 -3 -32
-6 -11 -2 -73 -6 -137 -9 -111 -3 -145 2 -218 33 -8 3 -18 5 -22 5 -5 -1 -8 3
-8 9 0 5 -4 8 -9 5 -5 -3 -14 1 -21 9 -7 8 -18 15 -24 15 -7 0 -32 10 -56 21
-24 12 -51 23 -59 24 -9 2 -16 4 -16 5 0 5 -84 14 -97 10 -13 -4 -28 -7 -37
-9 -18 -2 -41 -32 -41 -53 0 -26 31 -53 155 -135 112 -74 135 -96 135 -130 0
-29 -52 -86 -125 -138 -74 -52 -125 -101 -125 -119 0 -21 51 -54 96 -64 58
-13 126 11 222 76 172 117 165 114 244 118 40 2 98 6 128 10 30 3 66 7 80 7
14 1 31 6 38 10 6 5 12 6 12 3 0 -2 27 2 60 10 108 25 118 26 129 7 6 -10 11
-15 11 -11 0 4 21 -2 46 -12 25 -11 50 -18 55 -14 5 3 9 1 9 -4 0 -5 6 -9 13
-9 6 -1 41 -4 77 -8 36 -5 94 -7 130 -6 36 1 93 3 128 4 34 0 62 4 62 7 0 3
24 6 53 7 91 4 107 6 107 14 0 4 8 6 17 5 10 -2 49 3 88 11 38 7 84 16 100 19
17 2 45 9 64 14 19 5 38 7 43 4 4 -3 8 0 8 5 0 6 8 11 19 11 10 0 59 12 107
26 87 26 203 34 274 18 14 -3 34 -6 45 -8 70 -11 146 -30 151 -37 3 -5 12 -9
20 -9 14 0 52 -17 117 -52 31 -17 153 -118 142 -118 -3 0 7 -17 24 -37 16 -20
28 -40 25 -45 -3 -4 -1 -8 4 -8 5 0 22 -37 38 -82 l29 -83 3 -1265 c2 -863 -1
-1281 -8 -1314 -22 -105 -100 -159 -226 -158 -80 1 -157 30 -178 67 -6 11 -14
22 -17 25 -11 10 -29 66 -31 98 -1 19 -6 36 -10 38 -5 3 -4 13 0 22 12 24 3
140 -18 237 -7 33 -13 66 -13 73 0 6 -3 12 -7 12 -3 0 -6 9 -7 21 -2 23 -51
158 -64 175 -5 6 -6 14 -2 17 3 4 2 7 -4 7 -6 0 -14 11 -17 24 -3 14 -12 31
-19 38 -6 7 -30 40 -52 72 -97 144 -278 296 -444 372 -92 43 -220 86 -232 78
-5 -3 -9 -1 -9 4 0 5 -11 10 -25 11 -14 1 -36 3 -50 4 -14 1 -25 5 -25 8 0 3
-18 5 -41 5 -22 -1 -43 2 -45 6 -3 4 -15 3 -28 -2 -13 -5 -27 -6 -30 -3 -9 10
-56 10 -56 0 0 -4 -8 -4 -17 1 -16 7 -39 9 -45 2 -2 -1 -19 -3 -38 -4 -19 -1
-39 -4 -45 -7 -5 -4 -22 -6 -37 -5 -16 1 -28 -3 -28 -8 0 -5 -3 -7 -6 -4 -3 4
-20 2 -37 -3 -45 -14 -70 -20 -87 -23 -8 -1 -37 -12 -64 -24 -27 -12 -52 -22
-57 -22 -5 0 -9 -5 -9 -12 0 -6 -3 -9 -6 -5 -11 11 -224 -118 -224 -135 0 -4
-5 -8 -12 -8 -19 0 -162 -152 -218 -231 -27 -40 -61 -95 -74 -123 -27 -57 -55
-124 -55 -131 -1 -3 -7 -21 -15 -40 -8 -19 -12 -35 -9 -35 3 0 0 -7 -7 -15 -7
-8 -10 -15 -7 -15 3 0 -1 -26 -8 -58 -17 -70 -26 -148 -31 -257 -5 -114 -15
-144 -64 -193 -28 -29 -43 -37 -53 -29 -2 1 -11 -4 -19 -11 -9 -7 -45 -13 -80
-14 -54 -1 -73 3 -109 24 -25 15 -51 38 -59 52 -7 14 -17 26 -22 26 -5 0 -6 5
-3 10 3 6 1 10 -5 10 -6 0 -8 5 -5 10 3 6 1 10 -6 10 -7 0 -9 3 -6 6 3 4 2 15
-3 24 -19 35 -24 97 -23 285 0 208 6 296 28 460 9 69 13 90 26 154 6 31 13 63
14 71 2 8 4 16 5 18 2 1 3 5 4 10 2 4 8 27 15 52 7 25 14 50 15 57 1 7 5 16 9
19 4 4 7 16 7 26 0 10 4 18 8 18 5 0 9 6 9 14 0 13 73 176 83 186 3 3 18 25
34 50 45 70 117 153 161 188 22 17 49 39 60 49 11 10 37 27 58 38 20 11 37 23
37 27 0 5 6 8 13 8 6 0 24 6 38 14 35 18 197 71 279 91 124 31 184 72 175 120
-2 11 -4 23 -4 26 -1 8 -70 42 -96 47 -65 13 -268 3 -355 -17 -19 -4 -38 -8
-42 -9 -5 -1 -9 -2 -10 -3 -2 0 -10 -2 -18 -4 -43 -9 -148 -37 -165 -44 -11
-5 -58 -23 -105 -41 -47 -18 -132 -58 -190 -88 -58 -30 -115 -60 -127 -66 -13
-6 -23 -14 -23 -18 0 -5 -6 -8 -13 -8 -7 0 -24 -11 -39 -25 -15 -14 -31 -25
-36 -25 -5 0 -21 -11 -35 -24 -14 -13 -35 -30 -45 -38 -113 -80 -273 -249
-373 -393 -18 -27 -36 -52 -39 -55 -6 -6 -26 -40 -60 -105 -15 -27 -32 -59
-38 -70 -12 -20 -34 -76 -33 -85 0 -3 -6 -14 -13 -25 -27 -42 -98 -274 -112
-365 -3 -19 -7 -43 -10 -52 -14 -49 -31 -247 -32 -376 -1 -206 27 -371 89
-517 7 -16 13 -32 13 -35 5 -22 41 -90 48 -90 4 0 7 -3 6 -7 -5 -14 80 -129
148 -202 67 -72 200 -178 216 -174 4 2 8 -1 8 -6 0 -12 154 -87 240 -116 110
-38 222 -56 360 -60 236 -7 427 42 642 163 66 37 137 90 131 96 -4 3 0 6 8 6
34 0 269 276 269 316 0 7 4 14 9 16 8 3 72 159 86 213 12 45 12 45 14 48 2 2
5 15 15 67 2 14 5 25 6 25 4 0 10 83 14 170 6 168 28 218 112 266 57 32 180
33 240 3 24 -12 50 -28 57 -36 21 -21 47 -75 40 -82 -4 -3 -1 -6 6 -6 7 0 11
-8 10 -18 -1 -9 0 -19 1 -22 1 -3 3 -50 5 -105 1 -55 4 -100 5 -100 1 0 4 -16
6 -35 3 -19 10 -57 16 -85 7 -27 12 -54 13 -60 1 -5 4 -17 7 -25 3 -8 16 -44
29 -80 31 -89 62 -152 118 -235 61 -91 263 -294 294 -295 4 0 17 -9 28 -19 25
-23 194 -107 235 -117 16 -4 34 -10 39 -14 6 -5 57 -18 115 -31 81 -18 137
-23 250 -23 80 0 161 2 180 6 130 22 281 70 338 106 12 8 22 10 22 6 0 -5 4
-4 8 2 4 5 24 18 45 27 20 10 37 22 37 27 0 6 3 9 8 8 7 -3 85 48 125 82 16
13 96 94 147 149 28 30 90 119 90 128 0 5 9 19 21 31 11 12 17 27 14 32 -3 6
-2 10 3 10 18 0 80 177 109 313 17 76 18 181 18 1447 0 1239 -2 1372 -17 1440
-26 117 -26 119 -44 179 -10 31 -18 61 -20 66 -13 51 -108 250 -131 273 -7 7
-13 20 -13 28 0 8 -4 14 -10 14 -5 0 -10 7 -10 15 0 8 -4 15 -8 15 -4 0 -15
12 -24 28 -48 80 -282 316 -333 335 -8 4 -15 11 -15 17 0 5 -5 10 -12 10 -6 0
-25 10 -42 23 -17 13 -51 34 -76 48 -25 13 -47 26 -50 29 -12 12 -51 30 -64
30 -7 0 -19 7 -26 15 -6 8 -15 14 -18 13 -4 -1 -20 4 -37 11 -115 48 -226 84
-300 97 -16 3 -43 9 -60 14 -16 5 -52 12 -80 16 -27 3 -59 9 -70 11 -20 5
-492 12 -497 8z"/>
</g>
</svg>
